<svg xmlns="http://www.w3.org/2000/svg" width="87" height="110" viewBox="0 0 87 110">
  <g id="add_doc_icon" transform="translate(-426 -2029)">
    <g id="Group_11" data-name="Group 11" transform="translate(158.275 2020.964)">
      <path id="Path_12" data-name="Path 12" d="M352.107,117.72l-2.945-.417q1.266-9.767,2.01-19.594a131.322,131.322,0,0,0,.43-16.236c-.258-5.344-1.708-10.3-2.434-15.543a122.68,122.68,0,0,1-.838-16.847c0-11.514.611-23.035,1.442-34.517.112-1.549.228-3.1.357-4.647l.5.126c-.67,8.005-.321,16.248-.264,24.268.046,6.443.177,12.892.551,19.326a86.647,86.647,0,0,0,1.4,12.054,100.007,100.007,0,0,1,2.159,12.413,110.417,110.417,0,0,1,.005,14.676C354.361,94.741,352.742,117.811,352.107,117.72Z" fill="#013f6a"/>
    </g>
    <g id="Group_12" data-name="Group 12" transform="translate(158.275 2020.964)">
      <rect id="Rectangle_2" data-name="Rectangle 2" width="3.014" height="82.625" transform="matrix(0.012, -1, 1, 0.012, 268.997, 117.032)" fill="#013f6a"/>
    </g>
    <g id="Group_13" data-name="Group 13" transform="translate(158.275 2020.964)">
      <path id="Path_13" data-name="Path 13" d="M269.371,116.7c-.642-.007-.769-.906-.686-1.54q1.443-11.02,2.119-22.123a103.262,103.262,0,0,0-.246-16.082c-.508-5.315-1.963-10.487-2.422-15.791-.322-3.726-.377-7.468-.4-11.2-.083-11.536.509-23.083,1.307-34.589.149-2.154.306-4.308.486-6.46l1.506.126c-.6,7.1-.582,14.31-.7,21.426-.183,11.077-.493,22.444,1.083,33.443.965,6.732,2.408,13.148,2.4,19.99C273.811,95.01,271.819,105.9,269.371,116.7Z" fill="#013f6a"/>
    </g>
    <path id="Path_72" data-name="Path 72" d="M269.985,8.539l78.628-.5-78.55,3.515Z" transform="translate(158.275 2020.964)" fill="#013f6a"/>
    <path id="Path_73" data-name="Path 73" d="M282.075,33.438l60.492-.287-60.432,2.009Z" transform="translate(158.275 2020.964)" fill="#013f6a"/>
    <path id="Path_74" data-name="Path 74" d="M279.052,41.187l61.5-.287-61.439,2.009Z" transform="translate(158.275 2020.964)" fill="#013f6a"/>
    <path id="Path_75" data-name="Path 75" d="M279.052,50.228l61.5-.287L279.113,51.95Z" transform="translate(158.275 2020.964)" fill="#013f6a"/>
    <path id="Path_76" data-name="Path 76" d="M278.045,60.274l61.5-.287L278.106,62Z" transform="translate(158.275 2020.964)" fill="#013f6a"/>
    <path id="Path_77" data-name="Path 77" d="M280.06,72.329l61.5-.287L280.121,74.05Z" transform="translate(158.275 2020.964)" fill="#013f6a"/>
    <path id="Path_78" data-name="Path 78" d="M280.06,83.379l61.5-.287L280.121,85.1Z" transform="translate(158.275 2020.964)" fill="#013f6a"/>
    <path id="Path_79" data-name="Path 79" d="M282.075,94.429l61.5-.287-61.439,2.009Z" transform="translate(158.275 2020.964)" fill="#013f6a"/>
    <path id="Path_80" data-name="Path 80" d="M290.69,26.01c.164-.685.347-1.349.556-2.017a13.007,13.007,0,0,1,.779-1.99,3.921,3.921,0,0,1,.31-.5,1.285,1.285,0,0,1,.627-.489.771.771,0,0,1,.594.064,1.02,1.02,0,0,1,.332.3,2.325,2.325,0,0,1,.289.568,10.794,10.794,0,0,1,.455,2.1l-.009-.043a4.145,4.145,0,0,0,.216.669.946.946,0,0,0,.1.17.176.176,0,0,0-.122-.026c-.057.006-.061.026-.046.009a1.761,1.761,0,0,0,.315-.509c.1-.221.194-.458.281-.7.174-.484.326-.982.491-1.49a4.136,4.136,0,0,1,.316-.793,3.383,3.383,0,0,1,.494-.737,1.53,1.53,0,0,1,.895-.521,1.436,1.436,0,0,1,.992.319,4.391,4.391,0,0,1,1.072,1.345,10.361,10.361,0,0,1,.68,1.485c.095.254.18.512.257.777a.513.513,0,0,0,.271.381c.261.12.742-.153,1.124-.452s.766-.678,1.175-1.034a3.748,3.748,0,0,1,1.469-.869,2.778,2.778,0,0,1,1.717.227c1.034.428,1.8,1.31,2.743,1.115.911-.174,1.5-1.164,2.038-2.029.273-.447.54-.909.857-1.348a3.281,3.281,0,0,1,1.222-1.127,2.23,2.23,0,0,1,1.677-.045,6.158,6.158,0,0,1,1.441.754,21.232,21.232,0,0,0,2.608,1.743,2.639,2.639,0,0,0,2.8-.638c.838-.624,1.6-1.375,2.5-1.947a4.925,4.925,0,0,1,1.469-.636,6.688,6.688,0,0,1,1.591-.133,33.924,33.924,0,0,1,6.236,1.121,33.866,33.866,0,0,0-6.237-1.014,6.647,6.647,0,0,0-1.557.156,4.833,4.833,0,0,0-1.415.641c-.876.574-1.615,1.332-2.458,1.983a4.7,4.7,0,0,1-1.4.8,2.17,2.17,0,0,1-1.631-.088,20.915,20.915,0,0,1-2.68-1.722c-.847-.546-1.886-1.079-2.775-.637a2.9,2.9,0,0,0-1.054,1.021c-.294.42-.548.877-.816,1.334a9.931,9.931,0,0,1-.9,1.346,2.551,2.551,0,0,1-1.425.94,2.421,2.421,0,0,1-1.678-.353,12.36,12.36,0,0,0-1.364-.742,2.239,2.239,0,0,0-1.371-.175,3.259,3.259,0,0,0-1.21.763c-.382.343-.75.728-1.184,1.077a4.249,4.249,0,0,1-.721.471,1.322,1.322,0,0,1-1.016.1,1.158,1.158,0,0,1-.682-.8c-.075-.24-.159-.481-.252-.719a9.723,9.723,0,0,0-.659-1.377c-.488-.844-1.289-1.764-1.785-.983a2.682,2.682,0,0,0-.369.581,3.446,3.446,0,0,0-.255.678c-.151.5-.3,1.01-.473,1.521-.088.256-.18.512-.3.772a2.325,2.325,0,0,1-.531.814.746.746,0,0,1-.395.182.682.682,0,0,1-.49-.14,1.323,1.323,0,0,1-.353-.471,4.869,4.869,0,0,1-.286-.828l0-.012-.005-.031a10.087,10.087,0,0,0-.439-1.9,1.492,1.492,0,0,0-.175-.345c-.027-.034-.053-.058-.038-.044a.2.2,0,0,0,.1.011,1.936,1.936,0,0,0-.366.538,19.258,19.258,0,0,0-1.185,3.8Z" transform="translate(158.275 2020.964)" fill="#013f6a"/>
  </g>
</svg>
