<svg xmlns="http://www.w3.org/2000/svg" width="" height="" viewBox="0 0 463.11 463.109">
  <g id="Ellipse_5" data-name="Ellipse 5" transform="translate(171.842 -4959.689)" fill="none" stroke-linejoin="round" opacity="0.702">
    <path d="M115.928,4966.673c124.027,31.047,199.4,156.759,168.355,280.786S127.524,5446.861,3.5,5415.814s-199.4-156.759-168.355-280.786S-8.1,4935.625,115.928,4966.673Z" stroke="none"/>
    <path d="M 59.53810119628906 5019.6884765625 C -19.16639709472656 5019.6884765625 -87.50701904296875 5073.109375 -106.6540222167969 5149.59765625 C -117.7780303955078 5194.03564453125 -110.93115234375 5240.14599609375 -87.37440490722656 5279.43408203125 C -63.81777954101562 5318.72265625 -26.37139892578125 5346.48583984375 18.06710052490234 5357.60986328125 C 31.81935119628906 5361.052734375 45.88960266113281 5362.7978515625 59.88722610473633 5362.7978515625 C 138.5915985107422 5362.7978515625 206.9322204589844 5309.37744140625 226.0792236328125 5232.88916015625 C 237.2032165527344 5188.45068359375 230.3563537597656 5142.3408203125 206.7995910644531 5103.05224609375 C 183.2429809570312 5063.76416015625 145.7966003417969 5036.0009765625 101.3584747314453 5024.876953125 C 87.60572814941406 5021.43408203125 73.53522491455078 5019.6884765625 59.53810119628906 5019.6884765625 M 59.53811645507812 4959.6884765625 C 78.14875793457031 4959.6884765625 97.05632019042969 4961.94873046875 115.928352355957 4966.6728515625 C 239.9553527832031 4997.7197265625 315.3304748535156 5123.43212890625 284.2833557128906 5247.458984375 C 257.9604797363281 5352.61376953125 163.585693359375 5422.7978515625 59.88719940185547 5422.7978515625 C 41.27656555175781 5422.7978515625 22.36888122558594 5420.5380859375 3.496849060058594 5415.81396484375 C -120.5301513671875 5384.76708984375 -195.9052734375 5259.0546875 -164.858154296875 5135.02783203125 C -138.5352783203125 5029.873046875 -44.16038513183594 4959.6884765625 59.53811645507812 4959.6884765625 Z" stroke="none" fill="#ebf3ff"/>
  </g>
</svg>
