<svg xmlns="http://www.w3.org/2000/svg" width="18.768" height="22.447" viewBox="0 0 18.768 22.447">
  <g id="Group_409" data-name="Group 409" transform="translate(-19.148 -215.884)">
    <path id="Subtraction_1" data-name="Subtraction 1" d="M16.6,22.36H2.355A2.356,2.356,0,0,1,0,20.008V2.564A2.356,2.356,0,0,1,2.355.213L12.068,0l.047.048c1.55,1.619,6.6,6.91,6.549,7.006,0,5.649.1,12.881.1,12.954A2.192,2.192,0,0,1,16.6,22.36ZM3.36,14.331a.5.5,0,0,0-.5.5v.094a.5.5,0,0,0,.5.5h12.1a.5.5,0,0,0,.5-.5v-.094a.5.5,0,0,0-.5-.5Zm0-3.282a.5.5,0,0,0-.5.5v.094a.5.5,0,0,0,.5.5h12.1a.5.5,0,0,0,.5-.5v-.094a.5.5,0,0,0-.5-.5Zm.5-5.47a1,1,0,0,0-1,1V7.861a1,1,0,0,0,1,1H7.331a1,1,0,0,0,1-1V6.578a1,1,0,0,0-1-1Z" transform="translate(19.148 215.971)" fill="#013f6a"/>
    <path id="Rectangle_4" data-name="Rectangle 4" d="M548.512,314.1l6.621,6.959h-4.328a2.184,2.184,0,0,1-2.293-2.211Z" transform="translate(-517.29 -98.214)" fill="#03a8ee"/>
  </g>
</svg>
