<svg xmlns="http://www.w3.org/2000/svg" width="68.733" height="70.154" viewBox="0 0 68.733 70.154">
  <path id="google" d="M19.538,70.567C18.851,52.482,34.692,35.77,52.8,35.553c9.227-.787,18.2,2.8,25.185,8.64-2.864,3.149-5.779,6.262-8.891,9.177-6.147-3.735-13.548-6.581-20.732-4.053-11.587,3.3-18.6,16.981-14.317,28.317C37.591,89.472,51.991,95.969,63.277,91c5.844-2.092,9.7-7.484,11.387-13.278-6.7-.133-13.4-.05-20.094-.235-.017-3.985-.033-7.954-.017-11.939,11.169-.017,22.355-.05,33.54.05.687,9.763-.754,20.212-7.1,28.048-8.691,11.186-24.749,14.468-37.812,10.08C29.318,99.168,19.237,85.2,19.538,70.567Z" transform="translate(-19.517 -35.445)" fill="#fff"/>
</svg>
