<svg xmlns="http://www.w3.org/2000/svg" width="5.001" height="10.999" viewBox="0 0 5.001 10.999">
  <path id="info" d="M1425.851,343.813l-.158.628q-.712.273-1.136.416a3.076,3.076,0,0,1-.985.143,2,2,0,0,1-1.34-.408,1.306,1.306,0,0,1-.478-1.037,3.566,3.566,0,0,1,.036-.5c.024-.17.063-.362.116-.576l.593-2.039q.079-.293.134-.555a2.343,2.343,0,0,0,.054-.478.726.726,0,0,0-.166-.545.958.958,0,0,0-.634-.154,1.708,1.708,0,0,0-.471.07c-.161.046-.3.091-.415.133l.159-.629q.583-.231,1.115-.395a3.423,3.423,0,0,1,1.008-.164,1.954,1.954,0,0,1,1.32.4,1.316,1.316,0,0,1,.464,1.044c0,.089-.01.245-.032.468a3.061,3.061,0,0,1-.119.615l-.59,2.031a5.251,5.251,0,0,0-.13.559,2.793,2.793,0,0,0-.058.475.673.673,0,0,0,.186.552,1.074,1.074,0,0,0,.646.146,1.916,1.916,0,0,0,.488-.073A2.774,2.774,0,0,0,1425.851,343.813Zm.15-8.528a1.174,1.174,0,0,1-.413.9,1.429,1.429,0,0,1-.994.374,1.445,1.445,0,0,1-1-.374,1.171,1.171,0,0,1-.417-.9,1.183,1.183,0,0,1,.417-.908,1.508,1.508,0,0,1,1.994,0A1.185,1.185,0,0,1,1426,335.285Z" transform="translate(-1420.999 -334)" fill="#494949"/>
</svg>
