<svg xmlns="http://www.w3.org/2000/svg" width="512" height="315.734" viewBox="0 0 512 315.734">
  <g id="initials" transform="translate(-815 70.867)">
    <path id="Path_6" data-name="Path 6" d="M499.2,388.266h-8.533A4.273,4.273,0,0,1,486.4,384V281.6a72.617,72.617,0,0,0-72.533-72.533H379.734A72.617,72.617,0,0,0,307.2,281.6,12.8,12.8,0,0,0,320,294.4h34.133a12.8,12.8,0,0,0,12.8-12.8c0-19.858,11.108-46.933,29.867-46.933s29.867,27.075,29.867,46.933v7.9c-12.87,4.1-25.588,6.3-37.95,8.316-25.729,4.192-50.033,8.15-67.617,29.583-13.637,16.617-16.962,37.834-8.671,55.358,9.35,19.776,30.771,31.109,58.771,31.109h17.067c15.2,0,29.477-3.658,44.876-11.524a29.71,29.71,0,0,0,23.391,11.524H499.2a12.8,12.8,0,0,0,0-25.6Zm-72.533-11.484c-13.814,7.9-25.871,11.485-38.4,11.485-11.534,0-16.658-7.659-18.691-12.225a30.166,30.166,0,0,1,5.309-31.95c11.343-12.579,32.176-20.477,51.783-26.647v59.338h0Z" transform="translate(815 -169)" fill="#434343"/>
    <path id="Path_7" data-name="Path 7" d="M285.867,388.266h-8.492l-116.2-282.208a12.8,12.8,0,0,0-23.676,0L21.292,388.266H12.8a12.8,12.8,0,1,0,0,25.6H29.9c.049,0,.1,0,.148,0H46.933a12.775,12.775,0,0,0,1.967-25.4l24.677-59.932H182.421L207.1,388.464a12.775,12.775,0,0,0,1.967,25.4h76.8a12.8,12.8,0,0,0,0-25.6ZM84.118,302.933,128,196.364l43.882,106.569Z" transform="translate(815 -169)" fill="#434343"/>
  </g>
</svg>
