<svg id="Layer_1" data-name="Layer 1" xmlns="http://www.w3.org/2000/svg" xmlns:xlink="http://www.w3.org/1999/xlink" viewBox="0 0 567 1152"><defs><style>.cls-1{fill:#fff;}.cls-2{fill:url(#linear-gradient);}.cls-3{filter:url(#filter-12);}.cls-4{filter:url(#filter-15);}.cls-5{fill-opacity:0;fill:url(#linear-gradient-2);}.cls-6{fill:url(#linear-gradient-3);}.cls-7{filter:url(#filter-19);}.cls-19,.cls-8{fill:none;}.cls-8{stroke:url(#linear-gradient-4);}.cls-9{fill:url(#linear-gradient-5);}.cls-10{filter:url(#filter-22);}.cls-11{fill:url(#linear-gradient-6);}.cls-12{filter:url(#filter-24);}.cls-13{fill:url(#linear-gradient-7);}.cls-14{filter:url(#filter-27);}.cls-15{fill:url(#linear-gradient-8);}.cls-16{filter:url(#filter-29);}.cls-17{fill:url(#linear-gradient-9);}.cls-18{filter:url(#filter-32);}.cls-19{stroke:#efefef;stroke-width:2px;}</style><linearGradient id="linear-gradient" x1="301.96" y1="736.46" x2="301.96" y2="735.46" gradientTransform="matrix(560, 0, 0, -1152, -168815, 848398)" gradientUnits="userSpaceOnUse"><stop offset="0" stop-color="#f4f5f6"/><stop offset="1" stop-color="#f5f6f7"/></linearGradient><filter id="filter-12" x="-167.8" y="-0.9" width="103.6" height="101.7" name="filter-12"><feGaussianBlur result="shadowBlurInner1" stdDeviation="5.5" in="SourceAlpha"/><feOffset result="shadowOffsetInner1" dy="8" in="shadowBlurInner1"/><feComposite result="shadowInnerInner1" operator="arithmetic" k2="-1" k3="1" in="shadowOffsetInner1" in2="SourceAlpha"/><feColorMatrix result="shadowMatrixInner1" values="0 0 0 0 1 0 0 0 0 1 0 0 0 0 1 0 0 0 0.62 0" in="shadowInnerInner1"/><feGaussianBlur result="shadowBlurInner2" stdDeviation="6" in="SourceAlpha"/><feOffset result="shadowOffsetInner2" dy="-8" in="shadowBlurInner2"/><feComposite result="shadowInnerInner2" operator="arithmetic" k2="-1" k3="1" in="shadowOffsetInner2" in2="SourceAlpha"/><feColorMatrix result="shadowMatrixInner2" values="0 0 0 0 0.42 0 0 0 0 0.42 0 0 0 0 0.42 0 0 0 0.45 0" in="shadowInnerInner2"/><feGaussianBlur result="shadowBlurInner3" stdDeviation="2" in="SourceAlpha"/><feOffset result="shadowOffsetInner3" dy="-2" in="shadowBlurInner3"/><feComposite result="shadowInnerInner3" operator="arithmetic" k2="-1" k3="1" in="shadowOffsetInner3" in2="SourceAlpha"/><feColorMatrix result="shadowMatrixInner3" values="0 0 0 0 0 0 0 0 0 0 0 0 0 0 0 0 0 0 0.13 0" in="shadowInnerInner3"/><feMorphology result="shadowSpreadInner4" radius="10" in="SourceAlpha"/><feOffset result="shadowOffsetInner4" in="shadowSpreadInner4"/><feComposite result="shadowInnerInner4" operator="arithmetic" k2="-1" k3="1" in="shadowOffsetInner4" in2="SourceAlpha"/><feColorMatrix result="shadowMatrixInner4" values="0 0 0 0 0 0 0 0 0 0 0 0 0 0 0 0 0 0 0.01 0" in="shadowInnerInner4"/><feMerge><feMergeNode in="shadowMatrixInner1"/><feMergeNode in="shadowMatrixInner2"/><feMergeNode in="shadowMatrixInner3"/><feMergeNode in="shadowMatrixInner4"/></feMerge></filter><filter id="filter-15" x="-166.9" y="-0.4" width="101.9" height="100.9" name="filter-15"><feOffset result="shadowOffsetOuter1" dy="1" in="SourceAlpha"/><feGaussianBlur result="shadowBlurOuter1" stdDeviation="1.5" in="shadowOffsetOuter1"/><feComposite result="shadowBlurOuter1" operator="out" in="shadowBlurOuter1" in2="SourceAlpha"/><feColorMatrix values="0 0 0 0 0 0 0 0 0 0 0 0 0 0 0 0 0 0 0.12 0" in="shadowBlurOuter1"/></filter><linearGradient id="linear-gradient-2" x1="301.94" y1="736.46" x2="301.94" y2="735.46" gradientTransform="matrix(540, 0, 0, -1132, -162765, 833688)" xlink:href="#linear-gradient"/><linearGradient id="linear-gradient-3" x1="299.14" y1="794.44" x2="299.14" y2="793.44" gradientTransform="matrix(90, 0, 0, -9, -26474, 7212)" gradientUnits="userSpaceOnUse"><stop offset="0" stop-color="#bcc3c6"/><stop offset="1" stop-color="#ebeced"/></linearGradient><filter id="filter-19" x="-168.8" y="-27.8" width="105.6" height="155.6" name="filter-19"><feGaussianBlur result="shadowBlurInner1" stdDeviation="1.5" in="SourceAlpha"/><feOffset result="shadowOffsetInner1" dy="2" in="shadowBlurInner1"/><feComposite result="shadowInnerInner1" operator="arithmetic" k2="-1" k3="1" in="shadowOffsetInner1" in2="SourceAlpha"/><feColorMatrix values="0 0 0 0 0 0 0 0 0 0 0 0 0 0 0 0 0 0 0.5 0" in="shadowInnerInner1"/></filter><linearGradient id="linear-gradient-4" x1="299.11" y1="801.73" x2="299.11" y2="800.75" gradientTransform="matrix(89, 0, 0, -8, -26171.5, 6476.5)" gradientUnits="userSpaceOnUse"><stop offset="0" stop-color="#b2b4c0"/><stop offset="1" stop-color="#fff"/></linearGradient><linearGradient id="linear-gradient-5" x1="259.36" y1="742.19" x2="259.36" y2="741.19" gradientTransform="matrix(7, 0, 0, -85, -1086, 63333)" gradientUnits="userSpaceOnUse"><stop offset="0" stop-color="#f6f7f8"/><stop offset="0.92" stop-color="#eff0f1"/><stop offset="1" stop-color="#939698"/></linearGradient><filter id="filter-22" x="-187.4" y="-1.8" width="142.9" height="103.5" name="filter-22"><feGaussianBlur result="shadowBlurInner1" stdDeviation="1" in="SourceAlpha"/><feOffset result="shadowOffsetInner1" dx="-1" in="shadowBlurInner1"/><feComposite result="shadowInnerInner1" operator="arithmetic" k2="-1" k3="1" in="shadowOffsetInner1" in2="SourceAlpha"/><feColorMatrix result="shadowMatrixInner1" values="0 0 0 0 0.8 0 0 0 0 0.82 0 0 0 0 0.82 0 0 0 0.79 0" in="shadowInnerInner1"/><feOffset result="shadowOffsetInner2" dx="1" in="SourceAlpha"/><feComposite result="shadowInnerInner2" operator="arithmetic" k2="-1" k3="1" in="shadowOffsetInner2" in2="SourceAlpha"/><feColorMatrix result="shadowMatrixInner2" values="0 0 0 0 0 0 0 0 0 0 0 0 0 0 0 0 0 0 0.14 0" in="shadowInnerInner2"/><feMerge><feMergeNode in="shadowMatrixInner1"/><feMergeNode in="shadowMatrixInner2"/></feMerge></filter><linearGradient id="linear-gradient-6" x1="345.64" y1="742.19" x2="345.64" y2="741.19" gradientTransform="translate(2589 63333) rotate(180) scale(7 85)" xlink:href="#linear-gradient-5"/><filter id="filter-24" x="-187.4" y="-1.8" width="142.9" height="103.5" name="filter-24"><feGaussianBlur result="shadowBlurInner1" stdDeviation="1" in="SourceAlpha"/><feOffset result="shadowOffsetInner1" dx="-1" in="shadowBlurInner1"/><feComposite result="shadowInnerInner1" operator="arithmetic" k2="-1" k3="1" in="shadowOffsetInner1" in2="SourceAlpha"/><feColorMatrix result="shadowMatrixInner1" values="0 0 0 0 0.8 0 0 0 0 0.82 0 0 0 0 0.82 0 0 0 0.79 0" in="shadowInnerInner1"/><feOffset result="shadowOffsetInner2" dx="1" in="SourceAlpha"/><feComposite result="shadowInnerInner2" operator="arithmetic" k2="-1" k3="1" in="shadowOffsetInner2" in2="SourceAlpha"/><feColorMatrix result="shadowMatrixInner2" values="0 0 0 0 0 0 0 0 0 0 0 0 0 0 0 0 0 0 0.14 0" in="shadowInnerInner2"/><feMerge><feMergeNode in="shadowMatrixInner1"/><feMergeNode in="shadowMatrixInner2"/></feMerge></filter><linearGradient id="linear-gradient-7" x1="345.64" y1="746.96" x2="345.64" y2="745.96" gradientTransform="translate(2589 35999) rotate(180) scale(7 48)" gradientUnits="userSpaceOnUse"><stop offset="0" stop-color="#f6f7f8"/><stop offset="0.86" stop-color="#eff0f1"/><stop offset="1" stop-color="#939698"/></linearGradient><filter id="filter-27" x="-187.4" y="-3.1" width="142.9" height="106.2" name="filter-27"><feGaussianBlur result="shadowBlurInner1" stdDeviation="1" in="SourceAlpha"/><feOffset result="shadowOffsetInner1" dx="-1" in="shadowBlurInner1"/><feComposite result="shadowInnerInner1" operator="arithmetic" k2="-1" k3="1" in="shadowOffsetInner1" in2="SourceAlpha"/><feColorMatrix result="shadowMatrixInner1" values="0 0 0 0 0.8 0 0 0 0 0.82 0 0 0 0 0.82 0 0 0 0.79 0" in="shadowInnerInner1"/><feOffset result="shadowOffsetInner2" dx="1" in="SourceAlpha"/><feComposite result="shadowInnerInner2" operator="arithmetic" k2="-1" k3="1" in="shadowOffsetInner2" in2="SourceAlpha"/><feColorMatrix result="shadowMatrixInner2" values="0 0 0 0 0 0 0 0 0 0 0 0 0 0 0 0 0 0 0.14 0" in="shadowInnerInner2"/><feMerge><feMergeNode in="shadowMatrixInner1"/><feMergeNode in="shadowMatrixInner2"/></feMerge></filter><linearGradient id="linear-gradient-8" x1="345.64" y1="742.19" x2="345.64" y2="741.19" gradientTransform="translate(2589 63435) rotate(180) scale(7 85)" xlink:href="#linear-gradient-5"/><filter id="filter-29" x="-187.4" y="-1.8" width="142.9" height="103.5" name="filter-29"><feGaussianBlur result="shadowBlurInner1" stdDeviation="1" in="SourceAlpha"/><feOffset result="shadowOffsetInner1" dx="-1" in="shadowBlurInner1"/><feComposite result="shadowInnerInner1" operator="arithmetic" k2="-1" k3="1" in="shadowOffsetInner1" in2="SourceAlpha"/><feColorMatrix result="shadowMatrixInner1" values="0 0 0 0 0.8 0 0 0 0 0.82 0 0 0 0 0.82 0 0 0 0.79 0" in="shadowInnerInner1"/><feOffset result="shadowOffsetInner2" dx="1" in="SourceAlpha"/><feComposite result="shadowInnerInner2" operator="arithmetic" k2="-1" k3="1" in="shadowOffsetInner2" in2="SourceAlpha"/><feColorMatrix result="shadowMatrixInner2" values="0 0 0 0 0 0 0 0 0 0 0 0 0 0 0 0 0 0 0.14 0" in="shadowInnerInner2"/><feMerge><feMergeNode in="shadowMatrixInner1"/><feMergeNode in="shadowMatrixInner2"/></feMerge></filter><linearGradient id="linear-gradient-9" x1="299.18" y1="741.78" x2="299.18" y2="740.79" gradientTransform="matrix(91, 0, 0, -91, -26777, 68535)" gradientUnits="userSpaceOnUse"><stop offset="0" stop-color="#e4e7ea"/><stop offset="1" stop-color="#f3f5f6"/></linearGradient><filter id="filter-32" x="-166.5" y="-0.5" width="101.1" height="101.1" name="filter-32"><feGaussianBlur result="shadowBlurInner1" stdDeviation="0.5" in="SourceAlpha"/><feOffset result="shadowOffsetInner1" in="shadowBlurInner1"/><feComposite result="shadowInnerInner1" operator="arithmetic" k2="-1" k3="1" in="shadowOffsetInner1" in2="SourceAlpha"/><feColorMatrix values="0 0 0 0 0 0 0 0 0 0 0 0 0 0 0 0 0 0 0.14 0" in="shadowInnerInner1"/></filter></defs><title>iPhone2</title><g id="mask-34"><rect id="path-33" class="cls-1" x="30" y="116" width="506" height="901" rx="10" ry="10"/></g><g id="phone"><g id="frame"><g id="Rectangle"><rect id="path-11" class="cls-2" x="3" width="560" height="1152" rx="80" ry="80"/><g class="cls-3"><rect id="path-11-2" data-name="path-11" x="3" width="560" height="1152" rx="80" ry="80"/></g></g><g id="Rectangle-2" data-name="Rectangle"><g class="cls-4"><rect id="path-14" x="13" y="10" width="540" height="1132" rx="75" ry="75"/></g><rect id="path-14-2" data-name="path-14" class="cls-5" x="13" y="10" width="540" height="1132" rx="75" ry="75"/></g><g id="Rectangle-2-2" data-name="Rectangle-2"><path id="path-18" class="cls-6" d="M408.5,62h81a4.5,4.5,0,0,1,4.5,4.5h0a4.5,4.5,0,0,1-4.5,4.5h-81a4.5,4.5,0,0,1-4.5-4.5h0A4.5,4.5,0,0,1,408.5,62Z" transform="translate(-166)"/><g class="cls-7"><path id="path-18-2" data-name="path-18" d="M408.5,62h81a4.5,4.5,0,0,1,4.5,4.5h0a4.5,4.5,0,0,1-4.5,4.5h-81a4.5,4.5,0,0,1-4.5-4.5h0A4.5,4.5,0,0,1,408.5,62Z" transform="translate(-166)"/></g><path class="cls-8" d="M408.5,62.5h81a4,4,0,0,1,4,4h0a4,4,0,0,1-4,4h-81a4,4,0,0,1-4-4h0A4,4,0,0,1,408.5,62.5Z" transform="translate(-166)"/></g></g><g id="buttons"><g id="Rectangle-6"><path id="path-21" class="cls-9" d="M729.5,247H731a2,2,0,0,1,2,2v81a2,2,0,0,1-2,2h-1.5a3.5,3.5,0,0,1-3.5-3.5v-78A3.5,3.5,0,0,1,729.5,247Z" transform="translate(-166)"/><g class="cls-10"><path id="path-21-2" data-name="path-21" d="M729.5,247H731a2,2,0,0,1,2,2v81a2,2,0,0,1-2,2h-1.5a3.5,3.5,0,0,1-3.5-3.5v-78A3.5,3.5,0,0,1,729.5,247Z" transform="translate(-166)"/></g></g><g id="Rectangle-6-2" data-name="Rectangle-6"><path id="path-23" class="cls-11" d="M169.5,247H168a2,2,0,0,0-2,2v81a2,2,0,0,0,2,2h1.5a3.5,3.5,0,0,0,3.5-3.5v-78A3.5,3.5,0,0,0,169.5,247Z" transform="translate(-166)"/><g class="cls-12"><path id="path-23-2" data-name="path-23" d="M169.5,247H168a2,2,0,0,0-2,2v81a2,2,0,0,0,2,2h1.5a3.5,3.5,0,0,0,3.5-3.5v-78A3.5,3.5,0,0,0,169.5,247Z" transform="translate(-166)"/></g></g><g id="Rectangle-6-Copy"><path id="path-26" class="cls-13" d="M169.5,145H169a3,3,0,0,0-3,3v42a3,3,0,0,0,3,3h.5a3.5,3.5,0,0,0,3.5-3.5v-41A3.5,3.5,0,0,0,169.5,145Z" transform="translate(-166)"/><g class="cls-14"><path id="path-26-2" data-name="path-26" d="M169.5,145H169a3,3,0,0,0-3,3v42a3,3,0,0,0,3,3h.5a3.5,3.5,0,0,0,3.5-3.5v-41A3.5,3.5,0,0,0,169.5,145Z" transform="translate(-166)"/></g></g><g id="Rectangle-6-3" data-name="Rectangle-6"><path id="path-28" class="cls-15" d="M169.5,349H168a2,2,0,0,0-2,2v81a2,2,0,0,0,2,2h1.5a3.5,3.5,0,0,0,3.5-3.5v-78A3.5,3.5,0,0,0,169.5,349Z" transform="translate(-166)"/><g class="cls-16"><path id="path-28-2" data-name="path-28" d="M169.5,349H168a2,2,0,0,0-2,2v81a2,2,0,0,0,2,2h1.5a3.5,3.5,0,0,0,3.5-3.5v-78A3.5,3.5,0,0,0,169.5,349Z" transform="translate(-166)"/></g></g></g><g id="Oval"><path id="path-31" class="cls-17" d="M448.5,1119a40.5,40.5,0,1,0-40.5-40.5A40.5,40.5,0,0,0,448.5,1119Zm0,5a45.5,45.5,0,1,1,45.5-45.5A45.5,45.5,0,0,1,448.5,1124Z" transform="translate(-166)"/><g class="cls-18"><path id="path-31-2" data-name="path-31" d="M448.5,1119a40.5,40.5,0,1,0-40.5-40.5A40.5,40.5,0,0,0,448.5,1119Zm0,5a45.5,45.5,0,1,1,45.5-45.5A45.5,45.5,0,0,1,448.5,1124Z" transform="translate(-166)"/></g></g><rect class="cls-19" x="31" y="117" width="504" height="899" rx="10" ry="10"/></g></svg>