<svg xmlns="http://www.w3.org/2000/svg" width="70.362" height="67.237" viewBox="0 0 70.362 67.237">
  <path id="linkedin" d="M97.43,65.189V91.206H82.346V66.933c0-6.095-2.178-10.257-7.639-10.257a8.251,8.251,0,0,0-7.737,5.516,10.324,10.324,0,0,0-.5,3.676V91.205H51.385s.2-41.112,0-45.367H66.471v6.429c-.03.051-.073.1-.1.148h.1v-.148c2-3.085,5.58-7.494,13.595-7.494,9.924,0,17.364,6.484,17.364,20.416ZM35.6,23.969c-5.16,0-8.536,3.387-8.536,7.837,0,4.356,3.278,7.841,8.338,7.841h.1c5.261,0,8.533-3.485,8.533-7.841-.1-4.45-3.271-7.837-8.433-7.837ZM27.965,91.206h15.08V45.838H27.965Z" transform="translate(-27.068 -23.969)" fill="#fff"/>
</svg>
