<svg xmlns="http://www.w3.org/2000/svg" width="95" height="65.9" viewBox="0 0 95 65.9">
  <path id="Path_5" data-name="Path 5" d="M91.1,17H8.9a6.445,6.445,0,0,0-6.4,6.4V76.5a6.445,6.445,0,0,0,6.4,6.4H91.1a6.445,6.445,0,0,0,6.4-6.4V23.4A6.445,6.445,0,0,0,91.1,17Zm-67,50.6H18.8a3.1,3.1,0,1,1,0-6.2h5.3a3.1,3.1,0,1,1,0,6.2Zm19,0H37.8a3.1,3.1,0,1,1,0-6.2h5.3a3.1,3.1,0,1,1,0,6.2Zm19.1,0H56.9a3.1,3.1,0,0,1,0-6.2h5.3a3.116,3.116,0,0,1,3.1,3.1A3.183,3.183,0,0,1,62.2,67.6Zm19,0H75.9a3.1,3.1,0,0,1,0-6.2h5.3a3.1,3.1,0,1,1,0,6.2Zm3.1-24.7a2.689,2.689,0,0,1-2.7,2.7h-10a2.689,2.689,0,0,1-2.7-2.7v-10a2.689,2.689,0,0,1,2.7-2.7h10a2.689,2.689,0,0,1,2.7,2.7Z" transform="translate(-2.5 -17)" fill="#565656"/>
</svg>
