<svg xmlns="http://www.w3.org/2000/svg" width="23.32" height="23" viewBox="0 0 23.32 23">
  <g id="settings" transform="translate(0 -1)">
    <g id="settings-work-tool" transform="translate(0 9.605)">
      <g id="Group_432" data-name="Group 432">
        <path id="Path_301" data-name="Path 301" d="M14.353,6.4a.469.469,0,0,0-.463-.354A1.589,1.589,0,0,1,12.8,3.278a.4.4,0,0,0,.044-.543,7.122,7.122,0,0,0-1.14-1.152.4.4,0,0,0-.547.044,1.659,1.659,0,0,1-1.8.4A1.6,1.6,0,0,1,8.391.469a.4.4,0,0,0-.353-.42,7.186,7.186,0,0,0-1.619,0,.4.4,0,0,0-.356.412,1.6,1.6,0,0,1-.986,1.536A1.664,1.664,0,0,1,3.3,1.586a.4.4,0,0,0-.543-.046A7.149,7.149,0,0,0,1.587,2.691a.4.4,0,0,0,.043.547,1.6,1.6,0,0,1,.4,1.8,1.664,1.664,0,0,1-1.566.973.391.391,0,0,0-.416.353A7.21,7.21,0,0,0,.048,8a.476.476,0,0,0,.472.354A1.579,1.579,0,0,1,2,9.338a1.6,1.6,0,0,1-.4,1.78.4.4,0,0,0-.044.542,7.148,7.148,0,0,0,1.139,1.152.4.4,0,0,0,.548-.043,1.656,1.656,0,0,1,1.794-.4,1.6,1.6,0,0,1,.974,1.562.4.4,0,0,0,.353.42,7.164,7.164,0,0,0,1.619,0,.4.4,0,0,0,.356-.412A1.6,1.6,0,0,1,9.323,12.4a1.661,1.661,0,0,1,1.783.406.4.4,0,0,0,.543.045A7.166,7.166,0,0,0,12.813,11.7a.4.4,0,0,0-.043-.547,1.6,1.6,0,0,1-.4-1.8,1.611,1.611,0,0,1,1.472-.976l.089,0a.4.4,0,0,0,.421-.353A7.2,7.2,0,0,0,14.353,6.4ZM7.212,9.614a2.4,2.4,0,1,1,2.4-2.4A2.4,2.4,0,0,1,7.212,9.614Z" transform="translate(-0.003 0)" fill="#013f6a" fill-rule="evenodd"/>
      </g>
    </g>
    <g id="settings-work-tool-2" data-name="settings-work-tool" transform="translate(13.121 1) rotate(22)">
      <g id="Group_432-2" data-name="Group 432">
        <path id="Path_301-2" data-name="Path 301" d="M10.968,4.889a.358.358,0,0,0-.354-.271A1.214,1.214,0,0,1,9.783,2.5a.305.305,0,0,0,.033-.415,5.443,5.443,0,0,0-.871-.88.306.306,0,0,0-.418.034,1.268,1.268,0,0,1-1.372.308A1.222,1.222,0,0,1,6.413.358a.305.305,0,0,0-.27-.321,5.491,5.491,0,0,0-1.237,0,.306.306,0,0,0-.272.315A1.224,1.224,0,0,1,3.88,1.522a1.271,1.271,0,0,1-1.362-.31A.307.307,0,0,0,2.1,1.177a5.463,5.463,0,0,0-.89.88.306.306,0,0,0,.033.418,1.219,1.219,0,0,1,.308,1.372,1.272,1.272,0,0,1-1.2.743.3.3,0,0,0-.318.27,5.51,5.51,0,0,0,0,1.251.364.364,0,0,0,.361.27,1.206,1.206,0,0,1,1.132.754A1.223,1.223,0,0,1,1.222,8.5a.306.306,0,0,0-.033.414,5.462,5.462,0,0,0,.87.88.306.306,0,0,0,.419-.033,1.266,1.266,0,0,1,1.371-.308,1.22,1.22,0,0,1,.744,1.194.305.305,0,0,0,.27.321,5.475,5.475,0,0,0,1.237,0,.306.306,0,0,0,.272-.315,1.222,1.222,0,0,1,.753-1.173,1.269,1.269,0,0,1,1.362.31.307.307,0,0,0,.415.035,5.476,5.476,0,0,0,.89-.88.305.305,0,0,0-.033-.418,1.219,1.219,0,0,1-.308-1.372,1.231,1.231,0,0,1,1.125-.746l.068,0a.306.306,0,0,0,.322-.27A5.5,5.5,0,0,0,10.968,4.889ZM5.512,7.346A1.835,1.835,0,1,1,7.346,5.512,1.837,1.837,0,0,1,5.512,7.346Z" transform="translate(-0.003 0)" fill="#0e609a" fill-rule="evenodd"/>
      </g>
    </g>
  </g>
</svg>
