<svg xmlns="http://www.w3.org/2000/svg" width="89" height="89" viewBox="0 0 89 89">
  <g id="share_icon" transform="translate(-1146 -2040)">
    <path id="Path_66" data-name="Path 66" d="M171.808,65.668l-6.324-5.817-6.464-5.994.065.056A4.411,4.411,0,0,1,158,52.737a3.269,3.269,0,0,1-.52-1.6,3.951,3.951,0,0,1,1.377-2.922,15.71,15.71,0,0,1,4.96-2.857c3.382-1.417,6.758-2.768,10.15-4.1,6.794-2.632,13.578-5.278,20.4-7.813,6.817-2.559,13.638-5.111,20.484-7.589l10.262-3.739,10.218-3.66a17.675,17.675,0,0,1,2.892-.915,6.288,6.288,0,0,1,.923-.124,3.7,3.7,0,0,1,.623.018,2.389,2.389,0,0,1,1,.338,2.033,2.033,0,0,1,.932,1.435,2.342,2.342,0,0,1-.11,1.056,4.245,4.245,0,0,1-.5.987,14.751,14.751,0,0,1-2.04,2.3c-.39.358-.775.689-1.142.971-.374.3-.746.587-1.117.861-2.969,2.227-6.016,4.2-9.053,6.228-6.077,4.021-12.23,7.9-18.415,11.737Q190.78,54.857,171.808,65.668Zm0,0q18.008-12.321,36.159-24.385l9.04-6.08q4.528-3.025,9.012-6.1c2.978-2.051,5.964-4.136,8.8-6.273.357-.267.705-.535,1.034-.807.353-.274.652-.539.93-.795a12.048,12.048,0,0,0,1.564-1.76,2.022,2.022,0,0,0,.124-.213.791.791,0,0,0-.024.391,1.307,1.307,0,0,0,.575.886c.481.23.369.1.3.141a3.265,3.265,0,0,0-.43.066,14.657,14.657,0,0,0-2.3.755l-10.329,3.745-10.285,3.671L195.392,36.2l-20.608,7.222c-3.432,1.2-6.881,2.385-10.271,3.636a15.283,15.283,0,0,0-4.584,2.3,2.1,2.1,0,0,0-.1,3.576l.066.058Z" transform="translate(991.597 2022.589)" fill="#013f6a"/>
    <path id="Path_67" data-name="Path 67" d="M184.456,79.069c2.913,3.307,5.727,6.7,8.686,9.939q2.23,2.422,4.6,4.69c1.583,1.519,3.213,3.016,4.763,4.628a43.943,43.943,0,0,0,4.587,4.568,6.936,6.936,0,0,0,2.473,1.4,2.238,2.238,0,0,0,2.063-.722c1.325-1.251,2.29-3.315,3.271-5.2a62.167,62.167,0,0,0,2.554-5.937c3.015-8.1,5.022-16.684,7.807-25.073L233.313,42.3l4.1-12.522c.692-2.081,1.422-4.2,2.146-6.241.172-.5.332-.993.451-1.452a6.172,6.172,0,0,0,.136-.636c.035-.174.015-.351.031-.244a.983.983,0,0,0,.368.544,1.126,1.126,0,0,0,.467.225.952.952,0,0,0,.262.027c.181-.029,0,0-.145.085a8.181,8.181,0,0,0-1.141.747c-1.533,1.229-3.152,2.84-4.7,4.345l-4.656,4.655L221.4,41.266,202.99,60.217C196.792,66.481,190.695,72.84,184.456,79.069Zm0,0q17.157-20.1,35.023-39.586,4.465-4.875,9.022-9.674l4.6-4.771c1.587-1.586,3.049-3.136,4.929-4.7a11.025,11.025,0,0,1,1.613-1.081,3.606,3.606,0,0,1,1.414-.443,2.347,2.347,0,0,1,.674.047,2.12,2.12,0,0,1,.838.4,2.206,2.206,0,0,1,.759,1.25,3.922,3.922,0,0,1,.019,1.392,9.457,9.457,0,0,1-.2.975c-.154.6-.332,1.153-.513,1.693-.73,2.1-1.418,4.136-2.1,6.224l-4.02,12.53-8.236,25.026c-.7,2.094-1.4,4.14-2.063,6.218l-1.955,6.275c-1.3,4.2-2.667,8.417-4.372,12.538a64.915,64.915,0,0,1-2.833,6.08c-.52,1-1.089,1.961-1.678,2.935a11.912,11.912,0,0,1-2.3,2.806,5.25,5.25,0,0,1-1.8,1.026,3.941,3.941,0,0,1-2.221.041,6.193,6.193,0,0,1-1.774-.833,12.126,12.126,0,0,1-1.425-1.082,43.949,43.949,0,0,1-4.573-4.934c-1.421-1.639-2.959-3.208-4.474-4.819s-2.968-3.293-4.367-5C189.639,86.185,187.071,82.611,184.456,79.069Z" transform="translate(991.597 2022.589)" fill="#013f6a"/>
    <path id="Path_68" data-name="Path 68" d="M171.247,65.111a56.251,56.251,0,0,1,3.017,7.467c.228.627.415,1.263.63,1.89a20.322,20.322,0,0,1,.581,1.968c.31,1.3.648,2.561.989,3.794a15.994,15.994,0,0,0,1.376,3.416,4.341,4.341,0,0,0,1.038,1.194,2.169,2.169,0,0,0,.629.313,1.974,1.974,0,0,0,.659.062,25.231,25.231,0,0,0,3.669-1.28c.606-.263,1.209-.536,1.792-.846a8.126,8.126,0,0,0,.832-.52c.239-.195.556-.417.51-.764.143.341-.132.688-.327.947a5.756,5.756,0,0,1-.732.735,14.734,14.734,0,0,1-1.655,1.221,19.769,19.769,0,0,1-3.7,1.94,3.339,3.339,0,0,1-1.34.1,3.9,3.9,0,0,1-1.245-.392,5.239,5.239,0,0,1-1.789-1.608,13.28,13.28,0,0,1-1.836-3.883,38.137,38.137,0,0,1-.981-3.952c-.153-.67-.246-1.231-.421-1.9-.15-.654-.321-1.3-.446-1.961A77.783,77.783,0,0,1,171.247,65.111Z" transform="translate(991.597 2022.589)" fill="#013f6a"/>
    <path id="Path_69" data-name="Path 69" d="M162.825,65.668a13.411,13.411,0,0,1-.651,1.441l-1.057,1.04-2.105,2.087-2.105,2.087-1.053,1.043c-.472.228-.94.46-1.45.65.192-.505.426-.969.656-1.437l1.052-1.044,2.105-2.087,2.105-2.087,1.049-1.047A13.648,13.648,0,0,1,162.825,65.668Z" transform="translate(991.597 2022.589)" fill="#013f6a"/>
    <path id="Path_70" data-name="Path 70" d="M171.808,89.041a13.407,13.407,0,0,1-.651,1.441l-1.057,1.04-2.105,2.087L165.889,95.7l-1.053,1.043c-.472.228-.94.46-1.45.65.192-.505.426-.969.656-1.437l1.052-1.044,2.105-2.087,2.105-2.087,1.049-1.047A13.65,13.65,0,0,1,171.808,89.041Z" transform="translate(991.597 2022.589)" fill="#013f6a"/>
    <path id="Path_71" data-name="Path 71" d="M188.652,97.945A13.407,13.407,0,0,1,188,99.386l-1.057,1.04-2.105,2.087-2.105,2.087-1.053,1.043c-.472.228-.94.46-1.45.65.192-.505.426-.969.656-1.437l1.052-1.044,2.105-2.087,2.105-2.087L187.2,98.59A13.649,13.649,0,0,1,188.652,97.945Z" transform="translate(991.597 2022.589)" fill="#013f6a"/>
  </g>
</svg>
