<svg xmlns="http://www.w3.org/2000/svg" width="16" height="14.997" viewBox="0 0 16 14.997">
  <path id="Forma_1_copy" data-name="Forma 1 copy" d="M709.635,202a.635.635,0,0,1,0-1.27h14.73a.635.635,0,1,1,0,1.27Zm-.446-1.921a.628.628,0,0,1-.158-.638L711.742,191a.639.639,0,0,1,.374-.4l4.39-1.736,1.426-1.64a.65.65,0,0,1,.944-.036l3.424,3.366a.625.625,0,0,1-.037.928l-1.655,1.391-1.777,4.329a.64.64,0,0,1-.4.366l-8.591,2.667a.657.657,0,0,1-.649-.156Zm7.1-6.978a.625.625,0,0,1,0,.895l-4.325,4.252,5.79-1.8,1.556-3.79-2.569-2.525-3.86,1.526-1.828,5.692,4.326-4.253a.65.65,0,0,1,.91,0Zm1.482-3.742,2.322,2.283.807-.677-2.441-2.4Z" transform="translate(-709 -187.002)" fill="#565656"/>
</svg>
