<svg 
 xmlns="http://www.w3.org/2000/svg"
 xmlns:xlink="http://www.w3.org/1999/xlink"
 width="35px" height="46px">
<path fill-rule="evenodd"  fill="#013f6a"
 d="M34.089,46.000 C33.585,46.000 33.176,45.589 33.176,45.082 L33.176,38.017 C33.176,36.757 32.385,35.621 31.208,35.191 L25.288,33.026 L22.823,36.744 C22.508,37.219 22.003,37.524 21.438,37.580 C21.375,37.586 21.312,37.590 21.250,37.590 C20.751,37.590 20.273,37.392 19.916,37.033 L18.413,35.521 L18.413,45.082 C18.413,45.589 18.004,46.000 17.500,46.000 C16.996,46.000 16.587,45.589 16.587,45.082 L16.587,35.521 L15.084,37.033 C14.727,37.392 14.249,37.589 13.751,37.589 C13.688,37.589 13.625,37.586 13.562,37.580 C12.997,37.524 12.492,37.219 12.177,36.744 L9.713,33.025 L3.792,35.191 C2.615,35.621 1.824,36.757 1.824,38.017 L1.824,45.082 C1.824,45.589 1.415,46.000 0.911,46.000 C0.407,46.000 -0.002,45.589 -0.002,45.082 L-0.002,38.017 C-0.002,37.092 0.264,36.208 0.732,35.455 L2.040,34.060 C2.384,33.816 2.762,33.614 3.169,33.465 L8.784,31.412 C8.765,31.159 8.849,30.903 9.033,30.709 L10.733,28.913 L10.733,25.826 C8.346,23.788 6.829,20.697 6.829,17.266 L6.829,15.194 C6.182,13.777 5.853,12.277 5.853,10.732 L5.853,8.769 C5.853,3.934 9.765,0.000 14.573,0.000 L28.234,0.000 C28.738,0.000 29.147,0.411 29.147,0.918 L29.147,10.732 C29.147,12.276 28.819,13.776 28.171,15.194 L28.171,17.602 C28.171,20.557 26.941,23.411 24.796,25.433 C24.625,25.595 24.448,25.748 24.268,25.897 L24.268,28.913 L25.968,30.709 C26.151,30.902 26.236,31.159 26.217,31.412 L31.537,33.357 L33.652,34.659 C34.498,35.544 35.002,36.741 35.002,38.017 L35.002,45.082 C35.002,45.589 34.593,46.000 34.089,46.000 ZM21.207,35.735 C21.214,35.741 21.228,35.757 21.258,35.753 C21.288,35.750 21.299,35.733 21.304,35.725 L24.143,31.443 L23.229,30.478 L18.923,33.438 L21.207,35.735 ZM17.500,32.193 L22.443,28.795 L22.443,27.118 C20.934,27.915 19.255,28.334 17.510,28.334 C17.271,28.334 17.032,28.327 16.792,28.311 C15.269,28.212 13.837,27.777 12.558,27.082 L12.558,28.795 L17.500,32.193 ZM13.696,35.725 C13.701,35.733 13.713,35.750 13.742,35.753 C13.772,35.756 13.787,35.741 13.793,35.735 L16.077,33.438 L11.771,30.478 L10.858,31.443 L13.696,35.725 ZM26.346,17.602 L26.346,14.989 C26.346,14.850 26.377,14.714 26.437,14.589 C27.024,13.366 27.322,12.069 27.322,10.732 L27.322,1.836 L14.573,1.836 C10.771,1.836 7.679,4.946 7.679,8.769 L7.679,10.732 C7.679,12.069 7.977,13.366 8.564,14.589 C8.624,14.714 8.655,14.850 8.655,14.988 L8.655,17.266 C8.655,22.131 12.281,26.178 16.910,26.479 C19.072,26.620 21.142,25.993 22.832,24.702 C22.837,24.699 22.842,24.694 22.847,24.691 C23.089,24.505 23.323,24.306 23.548,24.094 C25.352,22.393 26.346,20.088 26.346,17.602 ZM11.630,10.518 C11.602,10.522 11.582,10.549 11.582,10.580 L11.582,12.695 C11.582,13.202 11.173,13.613 10.669,13.613 C10.165,13.613 9.757,13.202 9.757,12.695 L9.757,10.580 C9.757,9.633 10.430,8.844 11.357,8.703 C14.303,8.257 21.525,7.593 24.976,11.065 C25.333,11.423 25.333,12.004 24.976,12.363 C24.620,12.721 24.042,12.721 23.686,12.363 C22.466,11.136 20.405,10.418 17.559,10.227 C15.140,10.065 12.806,10.340 11.630,10.518 ZM6.766,40.238 C7.270,40.238 7.679,40.649 7.679,41.156 L7.679,45.082 C7.679,45.589 7.270,46.000 6.766,46.000 C6.262,46.000 5.853,45.589 5.853,45.082 L5.853,41.156 C5.853,40.649 6.262,40.238 6.766,40.238 ZM28.234,40.238 C28.738,40.238 29.147,40.649 29.147,41.156 L29.147,45.082 C29.147,45.589 28.738,46.000 28.234,46.000 C27.730,46.000 27.322,45.589 27.322,45.082 L27.322,41.156 C27.322,40.649 27.730,40.238 28.234,40.238 Z"/>
</svg>