<svg xmlns="http://www.w3.org/2000/svg" width="194" height="62" viewBox="0 0 194 62">
  <g id="webapp_svg" data-name="webapp svg" transform="translate(-469 -3811)">
    <rect id="Rectangle_4" data-name="Rectangle 4" width="194" height="62" rx="5" transform="translate(469 3811)" fill="#2b579a"/>
    <g id="Union_1" data-name="Union 1" transform="translate(489 3822)" fill="none">
      <path d="M6,37a6.007,6.007,0,0,1-6-6H55a6.007,6.007,0,0,1-6,6Zm18-2h9V33H24ZM4,29V0H51V29Z" stroke="none"/>
      <path d="M 47.50030136108398 25.49979972839355 L 47.50030136108398 3.500000476837158 L 7.499600410461426 3.500000476837158 L 7.499600410461426 25.49979972839355 L 47.50030136108398 25.49979972839355 M 48.99959945678711 36.99990081787109 L 6.000300407409668 36.99990081787109 C 2.691900491714478 36.99990081787109 4.089355343239731e-07 34.30889892578125 4.089355343239731e-07 30.99959945678711 L 54.99990081787109 30.99959945678711 C 54.99990081787109 34.30889892578125 52.30799865722656 36.99990081787109 48.99959945678711 36.99990081787109 Z M 24.00030136108398 32.9994010925293 L 24.00030136108398 34.99919891357422 L 33.00030136108398 34.99919891357422 L 33.00030136108398 32.9994010925293 L 24.00030136108398 32.9994010925293 Z M 51.00030136108398 28.99979972839355 L 3.999600410461426 28.99979972839355 L 3.999600410461426 4.089355343239731e-07 L 51.00030136108398 4.089355343239731e-07 L 51.00030136108398 28.99979972839355 Z" stroke="none" fill="#fff"/>
    </g>
    <text id="Web_App" data-name="Web App" transform="translate(558.813 3854.363)" fill="#fff" font-size="20" font-family="SFUIDisplay-Semibold, SF UI Display" font-weight="600" letter-spacing="0.025em"><tspan x="0" y="0">Web App</tspan></text>
    <text id="Available_on_the" data-name="Available on the" transform="translate(559.021 3833.482)" fill="#fff" font-size="11.792" font-family="SFUIDisplay-Regular, SF UI Display" letter-spacing="0.025em"><tspan x="0" y="0">Available on the</tspan></text>
  </g>
</svg>
